<?xml version="1.0" encoding="UTF-8"?>
<svg id="Layer_1" xmlns="http://www.w3.org/2000/svg" version="1.1" viewBox="0 0 338.6 53.65">
  <!-- Generator: Adobe Illustrator 30.4.0, SVG Export Plug-In . SVG Version: 2.1.4 Build 226)  -->
  <defs>
    <style>
      .st0 {
        fill: #e8336a;
      }
    </style>
  </defs>
  <g id="Layer_2">
    <g>
      <path class="st0" d="M4.21,5.36h11.37l11.18,29.64h.13l11.37-29.64h10.67l-18.66,45.23h-7.98L4.21,5.36Z"/>
      <path class="st0" d="M55.63,9.77c0-1.53.54-2.84,1.63-3.93,1.08-1.09,2.39-1.63,3.93-1.63s2.84.54,3.93,1.63c1.08,1.09,1.63,2.4,1.63,3.93s-.54,2.84-1.63,3.93-2.4,1.63-3.93,1.63-2.84-.54-3.93-1.63c-1.08-1.09-1.63-2.4-1.63-3.93ZM56.4,19.54h9.58v31.05h-9.58v-31.05Z"/>
      <path class="st0" d="M72.82,19.54h10.35l7.86,21.08h.13l7.28-21.08h9.65l-12.28,31.05h-10.16s-12.83-31.05-12.83-31.05Z"/>
      <path class="st0" d="M110.37,35.06c0-2.47.45-4.71,1.34-6.71s2.12-3.72,3.67-5.14c1.55-1.43,3.39-2.52,5.49-3.29,2.11-.77,4.35-1.15,6.74-1.15s4.63.38,6.74,1.15,3.94,1.86,5.49,3.29,2.78,3.14,3.67,5.14,1.34,4.24,1.34,6.71-.45,4.71-1.34,6.71-2.12,3.72-3.67,5.14c-1.56,1.43-3.39,2.52-5.49,3.29-2.11.77-4.35,1.15-6.74,1.15s-4.63-.38-6.74-1.15-3.94-1.86-5.49-3.29c-1.55-1.43-2.78-3.14-3.67-5.14-.9-2-1.34-4.24-1.34-6.71ZM119.95,35.06c0,2.34.67,4.24,2.01,5.68,1.34,1.45,3.22,2.17,5.65,2.17s4.31-.73,5.65-2.17c1.34-1.45,2.01-3.34,2.01-5.68s-.67-4.24-2.01-5.69-3.23-2.17-5.65-2.17-4.31.73-5.65,2.17c-1.34,1.46-2.01,3.35-2.01,5.69Z"/>
      <path class="st0" d="M153.8,2.29h9.58v48.29h-9.58V2.29Z"/>
      <path class="st0" d="M203.37,50.59h-9.2v-4.22h-.13c-.34.6-.78,1.19-1.31,1.79-.53.6-1.18,1.13-1.95,1.6-.76.47-1.64.85-2.62,1.15-.98.3-2.04.45-3.19.45-2.43,0-4.4-.37-5.91-1.12-1.51-.74-2.68-1.78-3.51-3.1s-1.38-2.88-1.66-4.66c-.28-1.79-.41-3.73-.41-5.81v-17.13h9.58v15.2c0,.89.03,1.82.1,2.78.06.96.26,1.84.58,2.65s.81,1.47,1.47,1.98,1.61.77,2.84.77,2.23-.22,3-.67c.77-.45,1.35-1.04,1.76-1.79s.67-1.59.8-2.52c.13-.94.19-1.92.19-2.94v-15.46h9.58v31.05h-.01Z"/>
      <path class="st0" d="M234.48,27.21h-8.43v10.35c0,.85.04,1.63.13,2.33.09.7.28,1.31.58,1.82s.76.91,1.37,1.18c.62.28,1.44.42,2.46.42.51,0,1.18-.05,2.01-.16s1.46-.35,1.88-.73v7.99c-1.06.38-2.17.64-3.32.77-1.15.13-2.28.19-3.39.19-1.62,0-3.11-.17-4.47-.51s-2.56-.88-3.58-1.63c-1.02-.74-1.82-1.71-2.4-2.91-.58-1.19-.86-2.64-.86-4.34v-14.77h-6.13v-7.67h6.13v-9.2h9.58v9.2h8.43v7.67h0Z"/>
      <path class="st0" d="M241.89,9.77c0-1.53.54-2.84,1.63-3.93s2.4-1.63,3.93-1.63,2.84.54,3.93,1.63,1.63,2.4,1.63,3.93-.54,2.84-1.63,3.93-2.4,1.63-3.93,1.63-2.84-.54-3.93-1.63-1.63-2.4-1.63-3.93ZM242.66,19.54h9.58v31.05h-9.58v-31.05Z"/>
      <path class="st0" d="M261.18,35.06c0-2.47.45-4.71,1.34-6.71.89-2,2.12-3.72,3.67-5.14,1.55-1.43,3.39-2.52,5.49-3.29,2.11-.77,4.36-1.15,6.74-1.15s4.63.38,6.74,1.15,3.94,1.86,5.49,3.29c1.56,1.43,2.78,3.14,3.67,5.14s1.34,4.24,1.34,6.71-.45,4.71-1.34,6.71c-.89,2-2.12,3.72-3.67,5.14-1.55,1.43-3.39,2.52-5.49,3.29-2.11.77-4.36,1.15-6.74,1.15s-4.63-.38-6.74-1.15-3.94-1.86-5.49-3.29c-1.56-1.43-2.78-3.14-3.67-5.14s-1.34-4.24-1.34-6.71ZM270.76,35.06c0,2.34.67,4.24,2.01,5.68,1.34,1.45,3.23,2.17,5.65,2.17s4.31-.73,5.65-2.17c1.34-1.45,2.01-3.34,2.01-5.68s-.67-4.24-2.01-5.69-3.22-2.17-5.65-2.17-4.31.73-5.65,2.17c-1.34,1.46-2.01,3.35-2.01,5.69Z"/>
      <path class="st0" d="M304.49,19.54h9.2v4.22h.13c.3-.6.73-1.19,1.28-1.79.55-.6,1.21-1.13,1.98-1.6.76-.47,1.64-.85,2.62-1.15.98-.3,2.04-.45,3.19-.45,2.43,0,4.39.37,5.88,1.12s2.65,1.78,3.48,3.1c.83,1.32,1.4,2.87,1.69,4.66.3,1.79.45,3.73.45,5.81v17.12h-9.58v-15.2c0-.89-.03-1.82-.1-2.78-.06-.96-.26-1.84-.58-2.65-.32-.81-.81-1.47-1.47-1.98s-1.61-.77-2.84-.77-2.24.22-3,.67c-.77.45-1.35,1.04-1.76,1.79-.41.74-.67,1.59-.8,2.52-.13.94-.19,1.92-.19,2.94v15.46h-9.58v-31.04h0Z"/>
    </g>
  </g>
</svg>